<svg xmlns="http://www.w3.org/2000/svg" viewBox="0 0 500 500" fill="none">
  <circle cx="250" cy="250" r="250" fill="#FF0420"/>
  <path d="M177.13 316.37c-13.16 0-24.82-2.77-34.98-8.3-10.03-5.67-17.83-13.73-23.39-24.19-5.43-10.6-8.14-23.12-8.14-37.58 0-14.45 2.84-27.04 8.52-37.77 5.81-10.73 13.8-19.03 23.97-24.9 10.17-5.87 21.82-8.81 34.98-8.81 13.03 0 24.62 2.87 34.79 8.62 10.17 5.74 18.1 13.97 23.78 24.71 5.68 10.6 8.52 23.25 8.52 37.96 0 14.59-2.91 27.17-8.71 37.77-5.69 10.46-13.55 18.52-23.59 24.19-10.03 5.53-21.55 8.3-34.6 8.3h-1.15Zm1.72-36.06c8.52 0 15.46-3.48 20.82-10.46 5.49-7.1 8.24-16.84 8.24-29.2 0-12.37-2.75-22.04-8.24-29.01-5.36-7.1-12.3-10.65-20.82-10.65-8.65 0-15.72 3.55-21.21 10.65-5.36 7.1-8.04 16.77-8.04 29.01 0 12.24 2.68 21.97 8.04 29.2 5.49 6.98 12.56 10.46 21.21 10.46Z" fill="white"/>
  <path d="M288.47 313.41V178.33h47.47c18.52 0 32.81 4.13 42.87 12.37 10.17 8.25 15.26 19.98 15.26 35.2 0 15.35-5.16 27.22-15.45 35.58-10.17 8.25-24.46 12.37-42.87 12.37h-16.41v39.56h-30.87Zm30.87-70.04h12.3c8.65 0 15.07-1.86 19.29-5.6 4.21-3.86 6.32-9.4 6.32-16.64 0-7.1-2.11-12.57-6.32-16.44-4.09-3.86-10.51-5.8-19.29-5.8h-12.3v44.48Z" fill="white"/>
</svg>
